<mxfile host="app.diagrams.net" modified="2023-04-22T14:41:26.942Z" agent="Mozilla/5.0 (Windows NT 10.0; Win64; x64) AppleWebKit/537.36 (KHTML, like Gecko) Chrome/112.0.0.0 Safari/537.36" etag="09JCCvWGjKGKUXy7_bua" version="21.2.1" type="device">
  <diagram name="Page-1" id="E2ZtGCwxdCxtEcR6BE48">
    <mxGraphModel dx="2247" dy="1835" grid="1" gridSize="10" guides="1" tooltips="1" connect="1" arrows="1" fold="1" page="1" pageScale="1" pageWidth="850" pageHeight="1100" math="0" shadow="0">
      <root>
        <mxCell id="0" />
        <mxCell id="1" parent="0" />
        <mxCell id="KKSkskm10w2vr5W7g7zr-9" value="name" style="ellipse;whiteSpace=wrap;html=1;align=center;" parent="1" vertex="1">
          <mxGeometry x="-115" y="-50" width="100" height="40" as="geometry" />
        </mxCell>
        <mxCell id="KKSkskm10w2vr5W7g7zr-10" value="phone_number_hash" style="ellipse;whiteSpace=wrap;html=1;align=center;" parent="1" vertex="1">
          <mxGeometry x="65" y="-70" width="125" height="40" as="geometry" />
        </mxCell>
        <mxCell id="KKSkskm10w2vr5W7g7zr-15" value="id" style="ellipse;whiteSpace=wrap;html=1;align=center;fontStyle=4;" parent="1" vertex="1">
          <mxGeometry x="450" y="-90" width="100" height="40" as="geometry" />
        </mxCell>
        <mxCell id="KKSkskm10w2vr5W7g7zr-16" value="id" style="ellipse;whiteSpace=wrap;html=1;align=center;fontStyle=4;" parent="1" vertex="1">
          <mxGeometry x="475" y="180" width="100" height="40" as="geometry" />
        </mxCell>
        <mxCell id="KKSkskm10w2vr5W7g7zr-68" style="edgeStyle=orthogonalEdgeStyle;rounded=0;orthogonalLoop=1;jettySize=auto;html=1;entryX=0.5;entryY=1;entryDx=0;entryDy=0;endArrow=none;endFill=0;" parent="1" source="KKSkskm10w2vr5W7g7zr-17" target="KKSkskm10w2vr5W7g7zr-38" edge="1">
          <mxGeometry relative="1" as="geometry" />
        </mxCell>
        <mxCell id="KKSkskm10w2vr5W7g7zr-17" value="token" style="ellipse;whiteSpace=wrap;html=1;align=center;fontStyle=4;" parent="1" vertex="1">
          <mxGeometry x="-15" y="220" width="100" height="40" as="geometry" />
        </mxCell>
        <mxCell id="KKSkskm10w2vr5W7g7zr-19" value="id" style="ellipse;whiteSpace=wrap;html=1;align=center;fontStyle=4;" parent="1" vertex="1">
          <mxGeometry x="-40" y="-150" width="100" height="40" as="geometry" />
        </mxCell>
        <mxCell id="KKSkskm10w2vr5W7g7zr-24" value="name" style="ellipse;whiteSpace=wrap;html=1;align=center;" parent="1" vertex="1">
          <mxGeometry x="390" y="-130" width="100" height="40" as="geometry" />
        </mxCell>
        <mxCell id="KKSkskm10w2vr5W7g7zr-25" value="content" style="ellipse;whiteSpace=wrap;html=1;align=center;" parent="1" vertex="1">
          <mxGeometry x="375" y="220" width="100" height="40" as="geometry" />
        </mxCell>
        <mxCell id="KKSkskm10w2vr5W7g7zr-27" value="created_at" style="ellipse;whiteSpace=wrap;html=1;align=center;" parent="1" vertex="1">
          <mxGeometry x="320" y="180" width="100" height="40" as="geometry" />
        </mxCell>
        <mxCell id="KKSkskm10w2vr5W7g7zr-28" value="obtained" style="ellipse;whiteSpace=wrap;html=1;align=center;" parent="1" vertex="1">
          <mxGeometry x="480" y="230" width="100" height="40" as="geometry" />
        </mxCell>
        <mxCell id="KKSkskm10w2vr5W7g7zr-29" value="bio" style="ellipse;whiteSpace=wrap;html=1;align=center;" parent="1" vertex="1">
          <mxGeometry x="50" y="-120" width="100" height="40" as="geometry" />
        </mxCell>
        <mxCell id="KKSkskm10w2vr5W7g7zr-32" value="password_validator" style="ellipse;whiteSpace=wrap;html=1;align=center;" parent="1" vertex="1">
          <mxGeometry x="-135" y="-100" width="140" height="40" as="geometry" />
        </mxCell>
        <mxCell id="KKSkskm10w2vr5W7g7zr-69" style="edgeStyle=orthogonalEdgeStyle;rounded=0;orthogonalLoop=1;jettySize=auto;html=1;entryX=0.937;entryY=0.54;entryDx=0;entryDy=0;entryPerimeter=0;endArrow=none;endFill=0;" parent="1" source="KKSkskm10w2vr5W7g7zr-36" target="KKSkskm10w2vr5W7g7zr-43" edge="1">
          <mxGeometry relative="1" as="geometry" />
        </mxCell>
        <mxCell id="KKSkskm10w2vr5W7g7zr-36" value="chat_group" style="whiteSpace=wrap;html=1;align=center;" parent="1" vertex="1">
          <mxGeometry x="390" y="-8" width="100" height="40" as="geometry" />
        </mxCell>
        <mxCell id="KKSkskm10w2vr5W7g7zr-71" style="edgeStyle=orthogonalEdgeStyle;rounded=0;orthogonalLoop=1;jettySize=auto;html=1;entryX=0.5;entryY=1;entryDx=0;entryDy=0;endArrow=none;endFill=0;" parent="1" source="KKSkskm10w2vr5W7g7zr-37" target="KKSkskm10w2vr5W7g7zr-70" edge="1">
          <mxGeometry relative="1" as="geometry" />
        </mxCell>
        <mxCell id="OJH82tu03b6ZQ5CeQSJa-3" style="edgeStyle=orthogonalEdgeStyle;rounded=0;orthogonalLoop=1;jettySize=auto;html=1;entryX=0;entryY=0.5;entryDx=0;entryDy=0;endArrow=none;endFill=0;" edge="1" parent="1" source="KKSkskm10w2vr5W7g7zr-37" target="OJH82tu03b6ZQ5CeQSJa-1">
          <mxGeometry relative="1" as="geometry" />
        </mxCell>
        <mxCell id="KKSkskm10w2vr5W7g7zr-37" value="message" style="whiteSpace=wrap;html=1;align=center;" parent="1" vertex="1">
          <mxGeometry x="390" y="120" width="100" height="40" as="geometry" />
        </mxCell>
        <mxCell id="KKSkskm10w2vr5W7g7zr-66" style="edgeStyle=orthogonalEdgeStyle;rounded=0;orthogonalLoop=1;jettySize=auto;html=1;entryX=0.5;entryY=1;entryDx=0;entryDy=0;endArrow=none;endFill=0;" parent="1" source="KKSkskm10w2vr5W7g7zr-38" target="KKSkskm10w2vr5W7g7zr-41" edge="1">
          <mxGeometry relative="1" as="geometry" />
        </mxCell>
        <mxCell id="KKSkskm10w2vr5W7g7zr-38" value="user_token" style="whiteSpace=wrap;html=1;align=center;" parent="1" vertex="1">
          <mxGeometry x="-15" y="140" width="100" height="40" as="geometry" />
        </mxCell>
        <mxCell id="KKSkskm10w2vr5W7g7zr-39" value="user_info" style="whiteSpace=wrap;html=1;align=center;" parent="1" vertex="1">
          <mxGeometry x="-15" y="-10" width="100" height="40" as="geometry" />
        </mxCell>
        <mxCell id="KKSkskm10w2vr5W7g7zr-65" style="edgeStyle=orthogonalEdgeStyle;rounded=0;orthogonalLoop=1;jettySize=auto;html=1;entryX=0.5;entryY=1;entryDx=0;entryDy=0;endArrow=none;endFill=0;" parent="1" source="KKSkskm10w2vr5W7g7zr-41" target="KKSkskm10w2vr5W7g7zr-39" edge="1">
          <mxGeometry relative="1" as="geometry" />
        </mxCell>
        <mxCell id="KKSkskm10w2vr5W7g7zr-41" value="" style="shape=rhombus;perimeter=rhombusPerimeter;whiteSpace=wrap;html=1;align=center;" parent="1" vertex="1">
          <mxGeometry x="5" y="71" width="60" height="30" as="geometry" />
        </mxCell>
        <mxCell id="KKSkskm10w2vr5W7g7zr-64" style="edgeStyle=orthogonalEdgeStyle;rounded=0;orthogonalLoop=1;jettySize=auto;html=1;entryX=1;entryY=0.5;entryDx=0;entryDy=0;endArrow=none;endFill=0;" parent="1" source="KKSkskm10w2vr5W7g7zr-43" target="KKSkskm10w2vr5W7g7zr-39" edge="1">
          <mxGeometry relative="1" as="geometry" />
        </mxCell>
        <mxCell id="KKSkskm10w2vr5W7g7zr-43" value="chat_group_member" style="shape=associativeEntity;whiteSpace=wrap;html=1;align=center;" parent="1" vertex="1">
          <mxGeometry x="205" y="-8.5" width="85" height="37.5" as="geometry" />
        </mxCell>
        <mxCell id="KKSkskm10w2vr5W7g7zr-51" value="" style="endArrow=none;html=1;rounded=0;entryX=0.5;entryY=1;entryDx=0;entryDy=0;" parent="1" target="KKSkskm10w2vr5W7g7zr-19" edge="1">
          <mxGeometry width="50" height="50" relative="1" as="geometry">
            <mxPoint x="35" y="-10" as="sourcePoint" />
            <mxPoint x="25" y="-130" as="targetPoint" />
          </mxGeometry>
        </mxCell>
        <mxCell id="KKSkskm10w2vr5W7g7zr-52" value="" style="endArrow=none;html=1;rounded=0;entryX=1;entryY=1;entryDx=0;entryDy=0;exitX=0.5;exitY=0;exitDx=0;exitDy=0;" parent="1" source="KKSkskm10w2vr5W7g7zr-39" target="KKSkskm10w2vr5W7g7zr-32" edge="1">
          <mxGeometry width="50" height="50" relative="1" as="geometry">
            <mxPoint x="35" y="-10" as="sourcePoint" />
            <mxPoint x="-35" y="-80" as="targetPoint" />
          </mxGeometry>
        </mxCell>
        <mxCell id="KKSkskm10w2vr5W7g7zr-53" value="" style="endArrow=none;html=1;rounded=0;entryX=0;entryY=1;entryDx=0;entryDy=0;" parent="1" target="KKSkskm10w2vr5W7g7zr-29" edge="1">
          <mxGeometry width="50" height="50" relative="1" as="geometry">
            <mxPoint x="35" y="-10" as="sourcePoint" />
            <mxPoint x="55" y="-100" as="targetPoint" />
          </mxGeometry>
        </mxCell>
        <mxCell id="KKSkskm10w2vr5W7g7zr-54" value="" style="endArrow=none;html=1;rounded=0;entryX=1;entryY=0.5;entryDx=0;entryDy=0;exitX=0.5;exitY=0;exitDx=0;exitDy=0;" parent="1" source="KKSkskm10w2vr5W7g7zr-39" target="KKSkskm10w2vr5W7g7zr-9" edge="1">
          <mxGeometry width="50" height="50" relative="1" as="geometry">
            <mxPoint x="16" y="50" as="sourcePoint" />
            <mxPoint x="-35" y="-26" as="targetPoint" />
          </mxGeometry>
        </mxCell>
        <mxCell id="KKSkskm10w2vr5W7g7zr-55" value="" style="endArrow=none;html=1;rounded=0;entryX=0;entryY=1;entryDx=0;entryDy=0;" parent="1" target="KKSkskm10w2vr5W7g7zr-10" edge="1">
          <mxGeometry width="50" height="50" relative="1" as="geometry">
            <mxPoint x="35" y="-10" as="sourcePoint" />
            <mxPoint x="101" y="-34" as="targetPoint" />
          </mxGeometry>
        </mxCell>
        <mxCell id="KKSkskm10w2vr5W7g7zr-61" value="1" style="text;html=1;align=center;verticalAlign=middle;resizable=0;points=[];autosize=1;strokeColor=none;fillColor=none;" parent="1" vertex="1">
          <mxGeometry x="5" y="100" width="30" height="30" as="geometry" />
        </mxCell>
        <mxCell id="KKSkskm10w2vr5W7g7zr-63" value="1" style="text;html=1;align=center;verticalAlign=middle;resizable=0;points=[];autosize=1;strokeColor=none;fillColor=none;" parent="1" vertex="1">
          <mxGeometry x="5" y="41" width="30" height="30" as="geometry" />
        </mxCell>
        <mxCell id="KKSkskm10w2vr5W7g7zr-72" style="edgeStyle=orthogonalEdgeStyle;rounded=0;orthogonalLoop=1;jettySize=auto;html=1;entryX=0.5;entryY=1;entryDx=0;entryDy=0;endArrow=none;endFill=0;" parent="1" source="KKSkskm10w2vr5W7g7zr-70" target="KKSkskm10w2vr5W7g7zr-36" edge="1">
          <mxGeometry relative="1" as="geometry" />
        </mxCell>
        <mxCell id="KKSkskm10w2vr5W7g7zr-70" value="to" style="shape=rhombus;perimeter=rhombusPerimeter;whiteSpace=wrap;html=1;align=center;" parent="1" vertex="1">
          <mxGeometry x="410" y="62" width="60" height="30" as="geometry" />
        </mxCell>
        <mxCell id="KKSkskm10w2vr5W7g7zr-73" value="N" style="text;html=1;align=center;verticalAlign=middle;resizable=0;points=[];autosize=1;strokeColor=none;fillColor=none;" parent="1" vertex="1">
          <mxGeometry x="410" y="90" width="30" height="30" as="geometry" />
        </mxCell>
        <mxCell id="KKSkskm10w2vr5W7g7zr-75" value="1" style="text;html=1;align=center;verticalAlign=middle;resizable=0;points=[];autosize=1;strokeColor=none;fillColor=none;" parent="1" vertex="1">
          <mxGeometry x="410" y="32" width="30" height="30" as="geometry" />
        </mxCell>
        <mxCell id="KKSkskm10w2vr5W7g7zr-76" value="" style="endArrow=none;html=1;rounded=0;entryX=0.5;entryY=1;entryDx=0;entryDy=0;exitX=0.5;exitY=0;exitDx=0;exitDy=0;" parent="1" source="KKSkskm10w2vr5W7g7zr-36" target="KKSkskm10w2vr5W7g7zr-24" edge="1">
          <mxGeometry width="50" height="50" relative="1" as="geometry">
            <mxPoint x="435" y="40" as="sourcePoint" />
            <mxPoint x="410" y="-60" as="targetPoint" />
          </mxGeometry>
        </mxCell>
        <mxCell id="KKSkskm10w2vr5W7g7zr-77" value="" style="endArrow=none;html=1;rounded=0;entryX=0;entryY=1;entryDx=0;entryDy=0;exitX=0.5;exitY=0;exitDx=0;exitDy=0;" parent="1" source="KKSkskm10w2vr5W7g7zr-36" target="KKSkskm10w2vr5W7g7zr-15" edge="1">
          <mxGeometry width="50" height="50" relative="1" as="geometry">
            <mxPoint x="440" y="-10" as="sourcePoint" />
            <mxPoint x="510" y="-62" as="targetPoint" />
          </mxGeometry>
        </mxCell>
        <mxCell id="KKSkskm10w2vr5W7g7zr-78" value="created_at" style="ellipse;whiteSpace=wrap;html=1;align=center;" parent="1" vertex="1">
          <mxGeometry x="320" y="-80" width="100" height="40" as="geometry" />
        </mxCell>
        <mxCell id="KKSkskm10w2vr5W7g7zr-79" value="" style="endArrow=none;html=1;rounded=0;entryX=1;entryY=1;entryDx=0;entryDy=0;exitX=0.5;exitY=0;exitDx=0;exitDy=0;" parent="1" source="KKSkskm10w2vr5W7g7zr-36" target="KKSkskm10w2vr5W7g7zr-78" edge="1">
          <mxGeometry width="50" height="50" relative="1" as="geometry">
            <mxPoint x="377.5" as="sourcePoint" />
            <mxPoint x="402.5" y="-48" as="targetPoint" />
          </mxGeometry>
        </mxCell>
        <mxCell id="KKSkskm10w2vr5W7g7zr-80" value="" style="endArrow=none;html=1;rounded=0;exitX=1;exitY=0;exitDx=0;exitDy=0;" parent="1" source="KKSkskm10w2vr5W7g7zr-27" edge="1">
          <mxGeometry width="50" height="50" relative="1" as="geometry">
            <mxPoint x="470" y="198" as="sourcePoint" />
            <mxPoint x="440" y="160" as="targetPoint" />
          </mxGeometry>
        </mxCell>
        <mxCell id="KKSkskm10w2vr5W7g7zr-81" value="" style="endArrow=none;html=1;rounded=0;entryX=0.5;entryY=1;entryDx=0;entryDy=0;exitX=0.5;exitY=0;exitDx=0;exitDy=0;" parent="1" source="KKSkskm10w2vr5W7g7zr-25" target="KKSkskm10w2vr5W7g7zr-37" edge="1">
          <mxGeometry width="50" height="50" relative="1" as="geometry">
            <mxPoint x="460" y="220" as="sourcePoint" />
            <mxPoint x="525" y="177" as="targetPoint" />
          </mxGeometry>
        </mxCell>
        <mxCell id="KKSkskm10w2vr5W7g7zr-83" value="" style="endArrow=none;html=1;rounded=0;exitX=0;exitY=0;exitDx=0;exitDy=0;" parent="1" source="KKSkskm10w2vr5W7g7zr-28" edge="1">
          <mxGeometry width="50" height="50" relative="1" as="geometry">
            <mxPoint x="490" y="250" as="sourcePoint" />
            <mxPoint x="440" y="160" as="targetPoint" />
          </mxGeometry>
        </mxCell>
        <mxCell id="KKSkskm10w2vr5W7g7zr-84" value="" style="endArrow=none;html=1;rounded=0;entryX=0.5;entryY=1;entryDx=0;entryDy=0;exitX=0;exitY=0;exitDx=0;exitDy=0;" parent="1" source="KKSkskm10w2vr5W7g7zr-16" target="KKSkskm10w2vr5W7g7zr-37" edge="1">
          <mxGeometry width="50" height="50" relative="1" as="geometry">
            <mxPoint x="580" y="172" as="sourcePoint" />
            <mxPoint x="590" y="92" as="targetPoint" />
          </mxGeometry>
        </mxCell>
        <mxCell id="KKSkskm10w2vr5W7g7zr-86" style="edgeStyle=orthogonalEdgeStyle;rounded=0;orthogonalLoop=1;jettySize=auto;html=1;entryX=0;entryY=0.5;entryDx=0;entryDy=0;endArrow=none;endFill=0;" parent="1" source="KKSkskm10w2vr5W7g7zr-85" target="KKSkskm10w2vr5W7g7zr-37" edge="1">
          <mxGeometry relative="1" as="geometry" />
        </mxCell>
        <mxCell id="KKSkskm10w2vr5W7g7zr-88" style="edgeStyle=orthogonalEdgeStyle;rounded=0;orthogonalLoop=1;jettySize=auto;html=1;entryX=1;entryY=0.5;entryDx=0;entryDy=0;endArrow=none;endFill=0;" parent="1" source="KKSkskm10w2vr5W7g7zr-85" target="KKSkskm10w2vr5W7g7zr-39" edge="1">
          <mxGeometry relative="1" as="geometry">
            <Array as="points">
              <mxPoint x="140" y="140" />
              <mxPoint x="140" y="10" />
            </Array>
          </mxGeometry>
        </mxCell>
        <mxCell id="KKSkskm10w2vr5W7g7zr-85" value="from" style="shape=rhombus;perimeter=rhombusPerimeter;whiteSpace=wrap;html=1;align=center;" parent="1" vertex="1">
          <mxGeometry x="250" y="125" width="60" height="30" as="geometry" />
        </mxCell>
        <mxCell id="KKSkskm10w2vr5W7g7zr-89" value="N" style="text;html=1;align=center;verticalAlign=middle;resizable=0;points=[];autosize=1;strokeColor=none;fillColor=none;" parent="1" vertex="1">
          <mxGeometry x="160" y="-20" width="30" height="30" as="geometry" />
        </mxCell>
        <mxCell id="KKSkskm10w2vr5W7g7zr-90" value="N" style="text;html=1;align=center;verticalAlign=middle;resizable=0;points=[];autosize=1;strokeColor=none;fillColor=none;" parent="1" vertex="1">
          <mxGeometry x="300" y="-20" width="30" height="30" as="geometry" />
        </mxCell>
        <mxCell id="KKSkskm10w2vr5W7g7zr-91" value="N" style="text;html=1;align=center;verticalAlign=middle;resizable=0;points=[];autosize=1;strokeColor=none;fillColor=none;" parent="1" vertex="1">
          <mxGeometry x="220" y="140" width="30" height="30" as="geometry" />
        </mxCell>
        <mxCell id="KKSkskm10w2vr5W7g7zr-92" value="N" style="text;html=1;align=center;verticalAlign=middle;resizable=0;points=[];autosize=1;strokeColor=none;fillColor=none;" parent="1" vertex="1">
          <mxGeometry x="310" y="140" width="30" height="30" as="geometry" />
        </mxCell>
        <mxCell id="OJH82tu03b6ZQ5CeQSJa-1" value="" style="shape=rhombus;perimeter=rhombusPerimeter;whiteSpace=wrap;html=1;align=center;" vertex="1" parent="1">
          <mxGeometry x="530" y="125" width="60" height="30" as="geometry" />
        </mxCell>
        <mxCell id="OJH82tu03b6ZQ5CeQSJa-4" style="edgeStyle=orthogonalEdgeStyle;rounded=0;orthogonalLoop=1;jettySize=auto;html=1;entryX=1;entryY=0.5;entryDx=0;entryDy=0;endArrow=none;endFill=0;" edge="1" parent="1" source="OJH82tu03b6ZQ5CeQSJa-2" target="OJH82tu03b6ZQ5CeQSJa-1">
          <mxGeometry relative="1" as="geometry" />
        </mxCell>
        <mxCell id="OJH82tu03b6ZQ5CeQSJa-2" value="template" style="whiteSpace=wrap;html=1;align=center;" vertex="1" parent="1">
          <mxGeometry x="630" y="120" width="100" height="40" as="geometry" />
        </mxCell>
        <mxCell id="OJH82tu03b6ZQ5CeQSJa-5" value="content" style="ellipse;whiteSpace=wrap;html=1;align=center;" vertex="1" parent="1">
          <mxGeometry x="560" y="60" width="100" height="40" as="geometry" />
        </mxCell>
        <mxCell id="OJH82tu03b6ZQ5CeQSJa-6" value="" style="endArrow=none;html=1;rounded=0;entryX=1;entryY=1;entryDx=0;entryDy=0;exitX=0.5;exitY=0;exitDx=0;exitDy=0;" edge="1" parent="1" source="OJH82tu03b6ZQ5CeQSJa-2" target="OJH82tu03b6ZQ5CeQSJa-5">
          <mxGeometry width="50" height="50" relative="1" as="geometry">
            <mxPoint x="615" y="135" as="sourcePoint" />
            <mxPoint x="630" y="75" as="targetPoint" />
          </mxGeometry>
        </mxCell>
        <mxCell id="OJH82tu03b6ZQ5CeQSJa-8" value="name" style="ellipse;whiteSpace=wrap;html=1;align=center;fontStyle=4;" vertex="1" parent="1">
          <mxGeometry x="680" y="57" width="100" height="40" as="geometry" />
        </mxCell>
        <mxCell id="OJH82tu03b6ZQ5CeQSJa-9" value="" style="endArrow=none;html=1;rounded=0;entryX=0;entryY=1;entryDx=0;entryDy=0;exitX=0.5;exitY=0;exitDx=0;exitDy=0;" edge="1" parent="1" source="OJH82tu03b6ZQ5CeQSJa-2" target="OJH82tu03b6ZQ5CeQSJa-8">
          <mxGeometry width="50" height="50" relative="1" as="geometry">
            <mxPoint x="752.5" y="112" as="sourcePoint" />
            <mxPoint x="707.5" y="76" as="targetPoint" />
          </mxGeometry>
        </mxCell>
        <mxCell id="OJH82tu03b6ZQ5CeQSJa-10" value="1" style="text;html=1;align=center;verticalAlign=middle;resizable=0;points=[];autosize=1;strokeColor=none;fillColor=none;" vertex="1" parent="1">
          <mxGeometry x="500" y="110" width="30" height="30" as="geometry" />
        </mxCell>
        <mxCell id="OJH82tu03b6ZQ5CeQSJa-11" value="1" style="text;html=1;align=center;verticalAlign=middle;resizable=0;points=[];autosize=1;strokeColor=none;fillColor=none;" vertex="1" parent="1">
          <mxGeometry x="590" y="110" width="30" height="30" as="geometry" />
        </mxCell>
      </root>
    </mxGraphModel>
  </diagram>
</mxfile>
